<svg data-v-32e72c62="" version="1.1" id="font_Avenir" xmlns="http://www.w3.org/2000/svg" xmlns:xlink="http://www.w3.org/1999/xlink" x="0px" y="0px" viewBox="0 0 1001.5 299" width="150" height="50" xml:space="preserve"><g><path fill="#287EFF" d="M211.9,68.8h-52.2v78.8h82.7V99.3C242.4,82.5,228.8,68.8,211.9,68.8z" class="st0"></path> <path fill="#0258ED" d="M242.4,147.6h-82.7v81.2h52.2c16.8,0,30.5-13.7,30.5-30.5V147.6z" class="st1"></path> <path fill="#0246CC" d="M159.7,68.8h-46.6c-16.8,0-30.5,13.7-30.5,30.5v99c0,16.8,13.7,30.5,30.5,30.5h46.6V68.8z" class="st2"></path> <g><image width="59" height="62" transform="matrix(2.0327 0 0 2.0327 101.9691 87.8218)" style="overflow: visible; opacity: 0.25;"></image> <g><g><path fill="#FFFFFF" d="M135.9,165.1h-22c-3.4,0-6.1-2.7-6.1-6.1v-22c0-3.4,2.7-6.1,6.1-6.1h22c3.4,0,6.1,2.7,6.1,6.1v22
					C142,162.4,139.2,165.1,135.9,165.1z" class="st3"></path></g> <g><path fill="#FFFFFF" d="M185,92.8h22c3.4,0,6.1,2.7,6.1,6.1v22c0,3.4-2.7,6.1-6.1,6.1h-22c-3.4,0-6.1-2.7-6.1-6.1v-22
					C178.9,95.5,181.7,92.8,185,92.8z" class="st3"></path></g> <g><path fill="#FFFFFF" d="M185,171h22c3.4,0,6.1,2.7,6.1,6.1v22c0,3.4-2.7,6.1-6.1,6.1h-22c-3.4,0-6.1-2.7-6.1-6.1v-22
					C178.9,173.7,181.7,171,185,171z" class="st3"></path></g> <g><rect x="120.7" y="127" transform="matrix(0.8103 -0.586 0.586 0.8103 -46.1491 119.4718)" fill="#FFFFFF" width="81.5" height="8.1" class="st3"></rect></g> <g><rect x="156.3" y="125" transform="matrix(0.6139 -0.7894 0.7894 0.6139 -68.8012 190.5198)" fill="#FFFFFF" width="8.1" height="81.1" class="st3"></rect></g></g></g></g> <g><g><path fill="#fff" d="M344.9,182.1h-9v-6.8h-0.2c-1.7,2.5-4.1,4.5-7.1,5.9s-6.1,2.1-9.3,2.1c-3.7,0-7-0.6-9.9-1.9
			c-3-1.3-5.5-3-7.6-5.3s-3.7-4.9-4.8-7.9c-1.1-3-1.7-6.3-1.7-9.8s0.6-6.8,1.7-9.8s2.7-5.7,4.8-7.9c2.1-2.2,4.6-4,7.6-5.2
			c3-1.3,6.3-1.9,9.9-1.9c3.4,0,6.6,0.7,9.6,2.1s5.3,3.4,6.9,5.8h0.2v-34.9h9v75.5H344.9z M320.3,174.9c2.4,0,4.6-0.4,6.5-1.2
			s3.6-2,4.9-3.4s2.4-3.2,3.1-5.2s1.1-4.2,1.1-6.6s-0.4-4.6-1.1-6.6s-1.8-3.8-3.1-5.2c-1.3-1.4-3-2.6-4.9-3.4
			c-1.9-0.8-4.1-1.2-6.5-1.2s-4.6,0.4-6.5,1.2s-3.6,2-4.9,3.4s-2.4,3.2-3.1,5.2s-1.1,4.2-1.1,6.6s0.4,4.6,1.1,6.6s1.8,3.8,3.1,5.2
			c1.3,1.4,3,2.6,4.9,3.4C315.8,174.5,317.9,174.9,320.3,174.9z" class="st2"></path> <path fill="#fff" d="M358.4,106.6h9v34.9h0.2c1.6-2.5,3.9-4.4,6.9-5.8c3-1.4,6.2-2.1,9.6-2.1c3.7,0,7,0.6,9.9,1.9
			c3,1.3,5.5,3,7.6,5.2s3.7,4.9,4.8,7.9c1.1,3,1.7,6.3,1.7,9.8s-0.6,6.8-1.7,9.8s-2.7,5.6-4.8,7.9c-2.1,2.3-4.6,4-7.6,5.3
			s-6.3,1.9-9.9,1.9c-3.2,0-6.3-0.7-9.3-2.1c-3-1.4-5.4-3.4-7.1-5.9h-0.2v6.8h-9v-75.5H358.4z M383,174.9c2.4,0,4.6-0.4,6.5-1.2
			s3.6-2,4.9-3.4s2.4-3.2,3.1-5.2s1.1-4.2,1.1-6.6s-0.4-4.6-1.1-6.6s-1.8-3.8-3.1-5.2c-1.3-1.4-3-2.6-4.9-3.4
			c-1.9-0.8-4.1-1.2-6.5-1.2s-4.6,0.4-6.5,1.2s-3.6,2-4.9,3.4s-2.4,3.2-3.1,5.2s-1.1,4.2-1.1,6.6s0.4,4.6,1.1,6.6s1.8,3.8,3.1,5.2
			c1.3,1.4,3,2.6,4.9,3.4C378.4,174.5,380.6,174.9,383,174.9z" class="st2"></path> <path fill="#fff" d="M466.9,182.1h-9v-6.8h-0.2c-1.7,2.5-4.1,4.5-7.1,5.9s-6.1,2.1-9.3,2.1c-3.7,0-7-0.6-9.9-1.9
			c-3-1.3-5.5-3-7.6-5.3s-3.7-4.9-4.8-7.9c-1.1-3-1.7-6.3-1.7-9.8s0.6-6.8,1.7-9.8s2.7-5.7,4.8-7.9c2.1-2.2,4.6-4,7.6-5.2
			c3-1.3,6.3-1.9,9.9-1.9c3.4,0,6.6,0.7,9.6,2.1s5.3,3.4,6.9,5.8h0.2v-34.9h9v75.5H466.9z M442.3,174.9c2.4,0,4.6-0.4,6.5-1.2
			s3.6-2,4.9-3.4s2.4-3.2,3.1-5.2s1.1-4.2,1.1-6.6s-0.4-4.6-1.1-6.6s-1.8-3.8-3.1-5.2c-1.3-1.4-3-2.6-4.9-3.4
			c-1.9-0.8-4.1-1.2-6.5-1.2s-4.6,0.4-6.5,1.2s-3.6,2-4.9,3.4s-2.4,3.2-3.1,5.2s-1.1,4.2-1.1,6.6s0.4,4.6,1.1,6.6s1.8,3.8,3.1,5.2
			c1.3,1.4,3,2.6,4.9,3.4C437.7,174.5,439.9,174.9,442.3,174.9z" class="st2"></path> <path fill="#fff" d="M479,117.8c0-1.8,0.6-3.3,1.9-4.6c1.3-1.3,2.8-1.9,4.6-1.9c1.8,0,3.3,0.6,4.6,1.9c1.3,1.3,1.9,2.8,1.9,4.6
			c0,1.8-0.6,3.3-1.9,4.6c-1.3,1.3-2.8,1.9-4.6,1.9c-1.8,0-3.3-0.6-4.6-1.9C479.7,121.1,479,119.6,479,117.8z M481.1,134.8h9v47.3
			h-9V134.8z" class="st2"></path> <path fill="#fff" d="M504.6,140.5c2.5-2.3,5.5-4.1,8.8-5.2c3.3-1.2,6.7-1.7,10-1.7c3.5,0,6.4,0.4,8.9,1.3c2.5,0.9,4.5,2,6.1,3.5
			s2.8,3.1,3.5,5c0.8,1.9,1.1,3.9,1.1,5.9v24.2c0,1.7,0,3.2,0.1,4.6c0.1,1.4,0.2,2.7,0.3,4h-8c-0.2-2.4-0.3-4.8-0.3-7.2H535
			c-2,3.1-4.4,5.2-7.1,6.5c-2.7,1.3-5.9,1.9-9.5,1.9c-2.2,0-4.3-0.3-6.3-0.9c-2-0.6-3.7-1.5-5.2-2.7s-2.7-2.7-3.5-4.4
			c-0.9-1.8-1.3-3.8-1.3-6.1c0-3.1,0.7-5.6,2-7.7c1.4-2.1,3.2-3.7,5.6-5s5.1-2.2,8.3-2.8s6.5-0.8,10.1-0.8h6.6v-2
			c0-1.2-0.2-2.4-0.7-3.6s-1.2-2.3-2.1-3.2c-0.9-1-2.1-1.7-3.5-2.3s-3.1-0.8-5-0.8c-1.7,0-3.2,0.2-4.5,0.5s-2.5,0.7-3.5,1.2
			c-1.1,0.5-2,1.1-2.9,1.7c-0.9,0.7-1.7,1.3-2.5,1.9L504.6,140.5z M529.9,159.3c-2.1,0-4.3,0.1-6.5,0.3s-4.3,0.7-6.1,1.3
			c-1.8,0.7-3.3,1.6-4.5,2.8s-1.7,2.7-1.7,4.6c0,2.7,0.9,4.7,2.7,5.9s4.3,1.8,7.4,1.8c2.5,0,4.6-0.4,6.3-1.2s3.1-1.9,4.2-3.2
			c1.1-1.3,1.8-2.8,2.3-4.4c0.5-1.6,0.7-3.2,0.7-4.8v-3h-4.8V159.3z" class="st2"></path> <path fill="#fff" d="M603.6,181.7c0,3.6-0.6,6.9-1.8,9.8c-1.2,3-3,5.5-5.2,7.7c-2.3,2.2-5,3.8-8.2,5s-6.7,1.8-10.6,1.8
			c-4.5,0-8.7-0.6-12.4-1.9c-3.8-1.3-7.3-3.5-10.7-6.6l6.1-7.6c2.3,2.5,4.9,4.4,7.6,5.7c2.7,1.3,5.8,1.9,9.3,1.9
			c3.3,0,6.1-0.5,8.3-1.4c2.2-1,3.9-2.2,5.2-3.7s2.2-3.3,2.7-5.2c0.5-2,0.8-3.9,0.8-5.9v-7h-0.3c-1.7,2.9-4.1,5-7,6.3
			c-3,1.4-6.1,2-9.3,2c-3.5,0-6.7-0.6-9.6-1.8c-3-1.2-5.5-2.9-7.6-5.1c-2.1-2.2-3.8-4.7-5-7.7s-1.8-6.2-1.8-9.6
			c0-3.5,0.6-6.7,1.7-9.7c1.1-3,2.7-5.7,4.8-7.9c2.1-2.3,4.6-4,7.6-5.3s6.3-1.9,9.9-1.9c3.2,0,6.3,0.7,9.3,2.1
			c3,1.4,5.4,3.4,7.1,5.9h0.2v-6.8h9L603.6,181.7L603.6,181.7z M579.1,141.9c-2.4,0-4.6,0.4-6.5,1.2s-3.6,2-4.9,3.4
			c-1.3,1.4-2.4,3.2-3.1,5.2c-0.7,2-1.1,4.2-1.1,6.6c0,4.8,1.4,8.6,4.2,11.5s6.6,4.3,11.4,4.3s8.6-1.4,11.4-4.3
			c2.8-2.9,4.2-6.7,4.2-11.5c0-2.4-0.4-4.6-1.1-6.6c-0.7-2-1.8-3.8-3.1-5.2s-3-2.6-4.9-3.4C583.6,142.4,581.5,141.9,579.1,141.9z" class="st2"></path> <path fill="#fff" d="M617.2,134.8h9v7.3h0.2c0.6-1.3,1.4-2.4,2.4-3.4s2.1-1.9,3.3-2.6c1.2-0.7,2.6-1.3,4-1.7
			c1.5-0.4,2.9-0.6,4.4-0.6s2.8,0.2,4,0.6l-0.4,9.7c-0.7-0.2-1.5-0.4-2.2-0.5s-1.5-0.2-2.2-0.2c-4.4,0-7.8,1.2-10.1,3.7
			s-3.5,6.3-3.5,11.5v23.8h-9L617.2,134.8L617.2,134.8z" class="st2"></path> <path fill="#fff" d="M654.3,140.5c2.5-2.3,5.5-4.1,8.8-5.2c3.3-1.2,6.7-1.7,10-1.7c3.5,0,6.4,0.4,8.9,1.3c2.5,0.9,4.5,2,6.1,3.5
			s2.8,3.1,3.5,5c0.8,1.9,1.1,3.9,1.1,5.9v24.2c0,1.7,0,3.2,0.1,4.6c0.1,1.4,0.2,2.7,0.3,4h-8c-0.2-2.4-0.3-4.8-0.3-7.2h-0.2
			c-2,3.1-4.4,5.2-7.1,6.5c-2.7,1.3-5.9,1.9-9.5,1.9c-2.2,0-4.3-0.3-6.3-0.9c-2-0.6-3.7-1.5-5.2-2.7s-2.7-2.7-3.5-4.4
			c-0.9-1.8-1.3-3.8-1.3-6.1c0-3.1,0.7-5.6,2-7.7c1.4-2.1,3.2-3.7,5.6-5c2.4-1.3,5.1-2.2,8.3-2.8s6.5-0.8,10.1-0.8h6.6v-2
			c0-1.2-0.2-2.4-0.7-3.6c-0.5-1.2-1.2-2.3-2.1-3.2c-0.9-1-2.1-1.7-3.5-2.3s-3.1-0.8-5-0.8c-1.7,0-3.2,0.2-4.5,0.5s-2.5,0.7-3.5,1.2
			c-1.1,0.5-2,1.1-2.9,1.7c-0.9,0.7-1.7,1.3-2.5,1.9L654.3,140.5z M679.7,159.3c-2.1,0-4.3,0.1-6.5,0.3s-4.3,0.7-6.1,1.3
			c-1.8,0.7-3.3,1.6-4.5,2.8s-1.7,2.7-1.7,4.6c0,2.7,0.9,4.7,2.7,5.9s4.3,1.8,7.4,1.8c2.5,0,4.6-0.4,6.3-1.2s3.1-1.9,4.2-3.2
			c1.1-1.3,1.8-2.8,2.3-4.4c0.5-1.6,0.7-3.2,0.7-4.8v-3h-4.8V159.3z" class="st2"></path> <path fill="#fff" d="M705.9,134.8h8.4v7.4h0.2c0.2-0.7,0.7-1.5,1.5-2.5s1.9-1.9,3.2-2.8c1.3-0.9,2.8-1.7,4.6-2.3s3.7-0.9,5.8-0.9
			c3.5,0,6.5,0.7,8.9,2.2s4.4,3.7,5.9,6.6c1.5-2.9,3.7-5.1,6.5-6.6s5.6-2.2,8.5-2.2c3.7,0,6.7,0.6,9,1.8s4.2,2.8,5.5,4.7
			c1.3,2,2.2,4.2,2.7,6.7s0.7,5.1,0.7,7.7v27.6h-9v-26.4c0-1.8-0.1-3.5-0.3-5.2s-0.7-3.1-1.4-4.4c-0.7-1.3-1.8-2.3-3.1-3
			c-1.3-0.8-3.1-1.1-5.3-1.1c-4.3,0-7.4,1.3-9.3,4c-1.9,2.7-2.8,6.1-2.8,10.3v25.9h-9v-24.8c0-2.3-0.1-4.3-0.3-6.2s-0.7-3.5-1.4-4.8
			c-0.7-1.4-1.7-2.4-3-3.2s-3-1.1-5.2-1.1c-1.6,0-3.1,0.3-4.6,0.9c-1.5,0.6-2.8,1.6-3.9,2.8c-1.1,1.3-2,2.9-2.7,4.8
			c-0.7,2-1,4.3-1,6.9v24.6h-9v-47.4H705.9z" class="st2"></path> <path fill="#fff" d="M798.1,182.7c-1.8,0-3.3-0.6-4.6-1.9s-1.9-2.8-1.9-4.6s0.6-3.3,1.9-4.6c1.3-1.3,2.8-1.9,4.6-1.9
			s3.3,0.6,4.6,1.9c1.3,1.3,1.9,2.8,1.9,4.6s-0.6,3.3-1.9,4.6C801.4,182,799.9,182.7,798.1,182.7z" class="st0"></path> <path fill="#fff" d="M817.3,117.8c0-1.8,0.6-3.3,1.9-4.6c1.3-1.3,2.8-1.9,4.6-1.9s3.3,0.6,4.6,1.9s1.9,2.8,1.9,4.6
			c0,1.8-0.6,3.3-1.9,4.6c-1.3,1.3-2.8,1.9-4.6,1.9s-3.3-0.6-4.6-1.9C818,121.1,817.3,119.6,817.3,117.8z M819.4,134.8h9v47.3h-9
			V134.8z" class="st0"></path> <path fill="#fff" d="M840.4,158.4c0-3.5,0.6-6.7,1.9-9.7c1.3-3,3.1-5.6,5.3-7.9c2.3-2.3,4.9-4,8-5.3s6.4-1.9,9.9-1.9
			s6.8,0.6,9.9,1.9c3.1,1.3,5.7,3.1,8,5.3c2.3,2.3,4,4.9,5.3,7.9s1.9,6.2,1.9,9.7s-0.6,6.7-1.9,9.7c-1.3,3-3.1,5.7-5.3,7.9
			c-2.3,2.2-4.9,4-8,5.3s-6.4,1.9-9.9,1.9s-6.8-0.6-9.9-1.9c-3.1-1.3-5.7-3.1-8-5.3s-4-4.9-5.3-7.9
			C841.1,165.1,840.4,161.9,840.4,158.4z M850,158.4c0,2.4,0.4,4.6,1.1,6.6c0.7,2,1.8,3.8,3.1,5.2s3,2.6,4.9,3.4
			c1.9,0.8,4.1,1.2,6.5,1.2s4.6-0.4,6.5-1.2s3.6-2,4.9-3.4c1.3-1.4,2.4-3.2,3.1-5.2c0.7-2,1.1-4.2,1.1-6.6s-0.4-4.6-1.1-6.6
			c-0.7-2-1.8-3.8-3.1-5.2s-3-2.6-4.9-3.4c-1.9-0.8-4.1-1.2-6.5-1.2s-4.6,0.4-6.5,1.2s-3.6,2-4.9,3.4c-1.3,1.4-2.4,3.2-3.1,5.2
			C850.4,153.8,850,156,850,158.4z" class="st0"></path></g></g></svg>
